<svg width="1440" height="1024" viewBox="0 0 1440 1024" fill="none" xmlns="http://www.w3.org/2000/svg">
<g clip-path="url(#clip0_58_53218)">
<rect width="1440" height="1024" fill="#3181F7"/>
<g opacity="0.95">
<circle cx="133.077" cy="208.462" r="48.4615" fill="white"/>
<circle cx="181.538" cy="256.923" r="48.4615" fill="white"/>
<circle cx="98.4615" cy="256.923" r="48.4615" fill="white"/>
</g>
<g opacity="0.75">
<ellipse cx="313.769" cy="539.615" rx="64.6154" ry="64.6154" fill="white"/>
<ellipse cx="375.385" cy="604.231" rx="64.6154" ry="64.6154" fill="white"/>
<ellipse cx="264.615" cy="604.231" rx="64.6154" ry="64.6154" fill="white"/>
</g>
<g opacity="0.95">
<ellipse cx="53.8462" cy="53.8462" rx="53.8462" ry="53.8462" transform="matrix(-1 0 0 1 1233.04 77)" fill="white"/>
<ellipse cx="53.8462" cy="53.8462" rx="53.8462" ry="53.8462" transform="matrix(-1 0 0 1 1181.69 130.846)" fill="white"/>
<ellipse cx="53.8462" cy="53.8462" rx="53.8462" ry="53.8462" transform="matrix(-1 0 0 1 1274 130.846)" fill="white"/>
</g>
<g opacity="0.75">
<ellipse cx="48.4615" cy="48.4615" rx="48.4615" ry="48.4615" transform="matrix(-1 0 0 1 1451.13 397)" fill="white"/>
<ellipse cx="48.4615" cy="48.4615" rx="48.4615" ry="48.4615" transform="matrix(-1 0 0 1 1404.92 445.462)" fill="white"/>
<ellipse cx="48.4615" cy="48.4615" rx="48.4615" ry="48.4615" transform="matrix(-1 0 0 1 1488 445.462)" fill="white"/>
</g>
<g opacity="0.95">
<ellipse cx="43.0769" cy="43.0769" rx="43.0769" ry="43.0769" transform="matrix(-1 0 0 1 1068.23 604)" fill="white"/>
<ellipse cx="43.0769" cy="43.0769" rx="43.0769" ry="43.0769" transform="matrix(-1 0 0 1 1027.15 647.077)" fill="white"/>
<ellipse cx="43.0769" cy="43.0769" rx="43.0769" ry="43.0769" transform="matrix(-1 0 0 1 1101 647.077)" fill="white"/>
</g>
<path d="M1326.22 759.624H1456.82V775.948H1326.22V759.624Z" fill="#E11833"/>
<path d="M1375.2 775.948H1505.79V792.272H1375.2V775.948Z" fill="#E11833"/>
<path d="M1342.55 775.948H1375.2V792.272H1342.55V775.948Z" fill="#FFF0EE"/>
<path d="M1277.25 775.948H1342.55V792.272H1277.25V775.948Z" fill="#E11833"/>
<path d="M1407.85 792.272H1473.14V808.597H1407.85V792.272Z" fill="#E11833"/>
<path d="M1375.2 792.272H1407.85V808.597H1375.2V792.272Z" fill="#FFF0EE"/>
<path d="M1309.9 792.272H1375.2V808.597H1309.9V792.272Z" fill="#E11833"/>
<path d="M1277.25 792.272H1309.9V808.597H1277.25V792.272Z" fill="#FFF0EE"/>
<path d="M1244.6 792.272H1277.25V808.597H1244.6V792.272Z" fill="#E11833"/>
<path d="M1424.17 808.597H1554.77V824.922H1424.17V808.597Z" fill="#E11833"/>
<path d="M1358.87 808.597H1424.17V824.922H1358.87V808.597Z" fill="#FFF0EE"/>
<path d="M1277.25 808.597H1358.87V824.922H1277.25V808.597Z" fill="#E11833"/>
<path d="M1260.92 808.597H1277.25V824.922H1260.92V808.597Z" fill="#FFF0EE"/>
<path d="M1228.28 808.597H1260.92V824.922H1228.28V808.597Z" fill="#E11833"/>
<path d="M1407.85 824.922H1571.09V841.246H1407.85V824.922Z" fill="#E11833"/>
<path d="M1375.2 824.922H1407.85V841.246H1375.2V824.922Z" fill="#FFF0EE"/>
<path d="M1211.95 824.922H1375.2V841.246H1211.95V824.922Z" fill="#E11833"/>
<path d="M1293.57 841.246H1489.47V857.571H1293.57V841.246Z" fill="#E11833"/>
<path d="M1244.6 841.246H1293.57V857.571H1244.6V841.246Z" fill="#FFF0EE"/>
<path d="M1211.95 841.246H1244.6V857.571H1211.95V841.246Z" fill="#E11833"/>
<path d="M1375.2 857.57H1473.14V873.895H1375.2V857.57Z" fill="#E11833"/>
<path d="M1342.55 857.57H1375.2V873.895H1342.55V857.57Z" fill="#FFF0EE"/>
<path d="M1309.9 857.57H1342.55V873.895H1309.9V857.57Z" fill="#E11833"/>
<path d="M1228.28 857.57H1309.9V873.895H1228.28V857.57Z" fill="#FFF0EE"/>
<path d="M1195.63 857.57H1228.28V873.895H1195.63V857.57Z" fill="#E11833"/>
<path d="M1424.17 873.896H1440.49V890.22H1424.17V873.896Z" fill="#FFF0EE"/>
<path d="M1375.2 873.896H1424.17V890.22H1375.2V873.896Z" fill="#E11833"/>
<path d="M1342.55 873.896H1375.2V890.22H1342.55V873.896Z" fill="#FFF0EE"/>
<path d="M1309.9 873.896H1342.55V890.22H1309.9V873.896Z" fill="#E11833"/>
<path d="M1228.28 873.896H1309.9V890.22H1228.28V873.896Z" fill="#FFF0EE"/>
<path d="M1195.63 873.896H1228.28V890.22H1195.63V873.896Z" fill="#E11833"/>
<path d="M1293.57 890.22H1554.77V906.544H1293.57V890.22Z" fill="#E11833"/>
<path d="M1244.6 890.22H1293.57V906.544H1244.6V890.22Z" fill="#FFF0EE"/>
<path d="M1195.63 890.22H1244.6V906.544H1195.63V890.22Z" fill="#E11833"/>
<path d="M1195.63 906.544H1587.42V922.869H1195.63V906.544Z" fill="#E11833"/>
<path d="M1211.95 922.869H1571.09V939.193H1211.95V922.869Z" fill="#E11833"/>
<path d="M1244.6 939.194H1538.44V955.518H1244.6V939.194Z" fill="#E11833"/>
<path d="M1277.25 955.518H1505.79V971.843H1277.25V955.518Z" fill="#F9E8DD"/>
<path d="M1277.25 971.842H1505.79V988.167H1277.25V971.842Z" fill="#F9E8DD"/>
<path d="M1277.25 988.167H1505.79V1004.49H1277.25V988.167Z" fill="#F9E8DD"/>
<path d="M1277.25 1004.49H1505.79V1020.82H1277.25V1004.49Z" fill="#F9E8DD"/>
<path d="M1277.25 1020.82H1505.79V1037.14H1277.25V1020.82Z" fill="#F9E8DD"/>
<path d="M1159.13 865.091H1250.84V876.555H1159.13V865.091Z" fill="#E11833"/>
<path d="M1193.52 876.555H1285.23V888.019H1193.52V876.555Z" fill="#E11833"/>
<path d="M1170.59 876.555H1193.52V888.019H1170.59V876.555Z" fill="#FFF0EE"/>
<path d="M1124.73 876.555H1170.59V888.019H1124.73V876.555Z" fill="#E11833"/>
<path d="M1273.76 888.019H1308.16V899.483H1273.76V888.019Z" fill="#E11833"/>
<path d="M1262.3 888.019H1273.76V899.483H1262.3V888.019Z" fill="#FFF0EE"/>
<path d="M1216.45 888.019H1262.3V899.483H1216.45V888.019Z" fill="#E11833"/>
<path d="M1193.52 888.019H1216.45V899.483H1193.52V888.019Z" fill="#FFF0EE"/>
<path d="M1147.66 888.019H1193.52V899.483H1147.66V888.019Z" fill="#E11833"/>
<path d="M1124.73 888.019H1147.66V899.483H1124.73V888.019Z" fill="#FFF0EE"/>
<path d="M1101.81 888.019H1124.73V899.483H1101.81V888.019Z" fill="#E11833"/>
<path d="M1227.91 899.483H1319.62V910.947H1227.91V899.483Z" fill="#E11833"/>
<path d="M1182.05 899.483H1227.91V910.947H1182.05V899.483Z" fill="#FFF0EE"/>
<path d="M1124.73 899.483H1182.05V910.947H1124.73V899.483Z" fill="#E11833"/>
<path d="M1113.27 899.483H1124.73V910.947H1113.27V899.483Z" fill="#FFF0EE"/>
<path d="M1090.34 899.483H1113.27V910.947H1090.34V899.483Z" fill="#E11833"/>
<path d="M1216.45 910.947H1331.08V922.411H1216.45V910.947Z" fill="#E11833"/>
<path d="M1193.52 910.947H1216.45V922.411H1193.52V910.947Z" fill="#FFF0EE"/>
<path d="M1078.88 910.947H1193.52V922.411H1078.88V910.947Z" fill="#E11833"/>
<path d="M1296.69 922.411H1331.08V933.874H1296.69V922.411Z" fill="#E11833"/>
<path d="M1273.76 922.411H1296.69V933.874H1273.76V922.411Z" fill="#FFF0EE"/>
<path d="M1136.2 922.411H1273.76V933.874H1136.2V922.411Z" fill="#E11833"/>
<path d="M1101.81 922.411H1136.2V933.874H1101.81V922.411Z" fill="#FFF0EE"/>
<path d="M1078.88 922.411H1101.81V933.874H1078.88V922.411Z" fill="#E11833"/>
<path d="M1308.16 933.874H1342.55V945.338H1308.16V933.874Z" fill="#E11833"/>
<path d="M1262.3 933.874H1308.16V945.338H1262.3V933.874Z" fill="#FFF0EE"/>
<path d="M1193.52 933.874H1262.3V945.338H1193.52V933.874Z" fill="#E11833"/>
<path d="M1170.59 933.874H1193.52V945.338H1170.59V933.874Z" fill="#FFF0EE"/>
<path d="M1147.66 933.874H1170.59V945.338H1147.66V933.874Z" fill="#E11833"/>
<path d="M1090.34 933.874H1147.66V945.338H1090.34V933.874Z" fill="#FFF0EE"/>
<path d="M1067.42 933.874H1090.34V945.338H1067.42V933.874Z" fill="#E11833"/>
<path d="M1331.08 945.338H1342.55V956.802H1331.08V945.338Z" fill="#E11833"/>
<path d="M1319.62 945.338H1331.08V956.802H1319.62V945.338Z" fill="#FFF0EE"/>
<path d="M1296.69 945.338H1319.62V956.802H1296.69V945.338Z" fill="#E11833"/>
<path d="M1273.76 945.338H1296.69V956.802H1273.76V945.338Z" fill="#FFF0EE"/>
<path d="M1239.37 945.338H1273.76V956.802H1239.37V945.338Z" fill="#E11833"/>
<path d="M1227.91 945.338H1239.37V956.802H1227.91V945.338Z" fill="#FFF0EE"/>
<path d="M1193.52 945.338H1227.91V956.802H1193.52V945.338Z" fill="#E11833"/>
<path d="M1170.59 945.338H1193.52V956.802H1170.59V945.338Z" fill="#FFF0EE"/>
<path d="M1147.66 945.338H1170.59V956.802H1147.66V945.338Z" fill="#E11833"/>
<path d="M1090.34 945.338H1147.66V956.802H1090.34V945.338Z" fill="#FFF0EE"/>
<path d="M1067.42 945.338H1090.34V956.802H1067.42V945.338Z" fill="#E11833"/>
<path d="M1331.08 956.802H1342.55V968.266H1331.08V956.802Z" fill="#E11833"/>
<path d="M1319.62 956.802H1331.08V968.266H1319.62V956.802Z" fill="#FFF0EE"/>
<path d="M1136.2 956.802H1319.62V968.266H1136.2V956.802Z" fill="#E11833"/>
<path d="M1101.81 956.802H1136.2V968.266H1101.81V956.802Z" fill="#FFF0EE"/>
<path d="M1067.42 956.802H1101.81V968.266H1067.42V956.802Z" fill="#E11833"/>
<path d="M1067.42 968.266H1342.55V979.729H1067.42V968.266Z" fill="#E11833"/>
<path d="M1078.88 979.729H1331.08V991.193H1078.88V979.729Z" fill="#E11833"/>
<path d="M1101.81 991.193H1308.16V1002.66H1101.81V991.193Z" fill="#E11833"/>
<path d="M1124.73 1002.66H1285.23V1014.12H1124.73V1002.66Z" fill="#F9E8DD"/>
<path d="M1124.73 1014.12H1285.23V1025.58H1124.73V1014.12Z" fill="#F9E8DD"/>
<path d="M159.055 790H43.5276V804.441H159.055V790Z" fill="#E11833"/>
<path d="M115.732 804.441H0.20459V818.882H115.732V804.441Z" fill="#E11833"/>
<path d="M144.614 804.441H115.732V818.882H144.614V804.441Z" fill="#FFF0EE"/>
<path d="M202.377 804.441H144.614V818.882H202.377V804.441Z" fill="#E11833"/>
<path d="M14.6457 818.882H-28.677V833.323H14.6457V818.882Z" fill="#E11833"/>
<path d="M29.0862 818.882H14.6453V833.323H29.0862V818.882Z" fill="#FFF0EE"/>
<path d="M86.8498 818.882H29.0862V833.323H86.8498V818.882Z" fill="#E11833"/>
<path d="M115.732 818.882H86.8499V833.323H115.732V818.882Z" fill="#FFF0EE"/>
<path d="M173.496 818.882H115.732V833.323H173.496V818.882Z" fill="#E11833"/>
<path d="M202.377 818.882H173.495V833.323H202.377V818.882Z" fill="#FFF0EE"/>
<path d="M231.259 818.882H202.377V833.323H231.259V818.882Z" fill="#E11833"/>
<path d="M72.4089 833.323H-43.1184V847.764H72.4089V833.323Z" fill="#E11833"/>
<path d="M130.173 833.323H72.4092V847.764H130.173V833.323Z" fill="#FFF0EE"/>
<path d="M202.378 833.323H130.173V847.764H202.378V833.323Z" fill="#E11833"/>
<path d="M216.818 833.323H202.377V847.764H216.818V833.323Z" fill="#FFF0EE"/>
<path d="M245.7 833.323H216.818V847.764H245.7V833.323Z" fill="#E11833"/>
<path d="M86.8498 847.764H-57.5593V862.205H86.8498V847.764Z" fill="#E11833"/>
<path d="M115.732 847.764H86.8499V862.205H115.732V847.764Z" fill="#FFF0EE"/>
<path d="M260.141 847.764H115.732V862.205H260.141V847.764Z" fill="#E11833"/>
<path d="M14.6457 862.205H-14.2361V876.646H14.6457V862.205Z" fill="#FFF0EE"/>
<path d="M187.936 862.205H14.6453V876.646H187.936V862.205Z" fill="#E11833"/>
<path d="M231.26 862.205H187.937V876.646H231.26V862.205Z" fill="#FFF0EE"/>
<path d="M260.141 862.205H231.259V876.646H260.141V862.205Z" fill="#E11833"/>
<path d="M29.0867 876.646H-28.677V891.086H29.0867V876.646Z" fill="#FFF0EE"/>
<path d="M115.732 876.646H29.0862V891.086H115.732V876.646Z" fill="#E11833"/>
<path d="M144.614 876.646H115.732V891.086H144.614V876.646Z" fill="#FFF0EE"/>
<path d="M173.496 876.646H144.614V891.086H173.496V876.646Z" fill="#E11833"/>
<path d="M245.7 876.646H173.495V891.086H245.7V876.646Z" fill="#FFF0EE"/>
<path d="M274.582 876.646H245.7V891.086H274.582V876.646Z" fill="#E11833"/>
<path d="M14.6457 891.086H-14.2361V905.527H14.6457V891.086Z" fill="#FFF0EE"/>
<path d="M57.968 891.086H14.6453V905.527H57.968V891.086Z" fill="#E11833"/>
<path d="M72.4094 891.086H57.9685V905.527H72.4094V891.086Z" fill="#FFF0EE"/>
<path d="M115.732 891.086H72.4092V905.527H115.732V891.086Z" fill="#E11833"/>
<path d="M144.614 891.086H115.732V905.527H144.614V891.086Z" fill="#FFF0EE"/>
<path d="M173.496 891.086H144.614V905.527H173.496V891.086Z" fill="#E11833"/>
<path d="M245.7 891.086H173.495V905.527H245.7V891.086Z" fill="#FFF0EE"/>
<path d="M274.582 891.086H245.7V905.527H274.582V891.086Z" fill="#E11833"/>
<path d="M187.936 905.527H-43.1184V919.968H187.936V905.527Z" fill="#E11833"/>
<path d="M231.26 905.527H187.937V919.968H231.26V905.527Z" fill="#FFF0EE"/>
<path d="M274.582 905.527H231.259V919.968H274.582V905.527Z" fill="#E11833"/>
<path d="M274.582 919.969H-72V934.41H274.582V919.969Z" fill="#E11833"/>
<path d="M260.141 934.409H-57.5593V948.85H260.141V934.409Z" fill="#E11833"/>
<path d="M231.259 948.851H-28.677V963.292H231.259V948.851Z" fill="#E11833"/>
<path d="M202.377 963.291H0.20459V977.732H202.377V963.291Z" fill="#F9E8DD"/>
<path d="M202.377 977.732H0.20459V992.173H202.377V977.732Z" fill="#F9E8DD"/>
<path d="M202.377 992.173H0.20459V1006.61H202.377V992.173Z" fill="#F9E8DD"/>
<path d="M202.377 1006.61H0.20459V1021.05H202.377V1006.61Z" fill="#F9E8DD"/>
<path d="M202.377 1021.05H0.20459V1035.5H202.377V1021.05Z" fill="#F9E8DD"/>
<path d="M257.257 885H176.129V895.141H257.257V885Z" fill="#E11833"/>
<path d="M226.834 895.141H145.706V905.282H226.834V895.141Z" fill="#E11833"/>
<path d="M247.116 895.141H226.834V905.282H247.116V895.141Z" fill="#FFF0EE"/>
<path d="M287.681 895.141H247.116V905.282H287.681V895.141Z" fill="#E11833"/>
<path d="M155.847 905.282H125.423V915.423H155.847V905.282Z" fill="#E11833"/>
<path d="M165.988 905.282H155.847V915.423H165.988V905.282Z" fill="#FFF0EE"/>
<path d="M206.552 905.282H165.988V915.423H206.552V905.282Z" fill="#E11833"/>
<path d="M226.834 905.282H206.552V915.423H226.834V905.282Z" fill="#FFF0EE"/>
<path d="M267.399 905.282H226.834V915.423H267.399V905.282Z" fill="#E11833"/>
<path d="M287.681 905.282H267.399V915.423H287.681V905.282Z" fill="#FFF0EE"/>
<path d="M307.963 905.282H287.681V915.423H307.963V905.282Z" fill="#E11833"/>
<path d="M196.411 915.423H115.282V925.564H196.411V915.423Z" fill="#E11833"/>
<path d="M236.975 915.423H196.411V925.564H236.975V915.423Z" fill="#FFF0EE"/>
<path d="M287.681 915.423H236.975V925.564H287.681V915.423Z" fill="#E11833"/>
<path d="M297.822 915.423H287.681V925.564H297.822V915.423Z" fill="#FFF0EE"/>
<path d="M318.104 915.423H297.822V925.564H318.104V915.423Z" fill="#E11833"/>
<path d="M206.552 925.564H105.141V935.706H206.552V925.564Z" fill="#E11833"/>
<path d="M226.834 925.564H206.552V935.706H226.834V925.564Z" fill="#FFF0EE"/>
<path d="M328.245 925.564H226.834V935.706H328.245V925.564Z" fill="#E11833"/>
<path d="M135.564 935.706H105.141V945.847H135.564V935.706Z" fill="#E11833"/>
<path d="M155.847 935.706H135.564V945.847H155.847V935.706Z" fill="#FFF0EE"/>
<path d="M277.54 935.706H155.847V945.847H277.54V935.706Z" fill="#E11833"/>
<path d="M307.963 935.706H277.54V945.847H307.963V935.706Z" fill="#FFF0EE"/>
<path d="M328.245 935.706H307.963V945.847H328.245V935.706Z" fill="#E11833"/>
<path d="M125.423 945.846H95V955.987H125.423V945.846Z" fill="#E11833"/>
<path d="M165.988 945.846H125.423V955.987H165.988V945.846Z" fill="#FFF0EE"/>
<path d="M226.834 945.846H165.988V955.987H226.834V945.846Z" fill="#E11833"/>
<path d="M247.116 945.846H226.834V955.987H247.116V945.846Z" fill="#FFF0EE"/>
<path d="M267.399 945.846H247.116V955.987H267.399V945.846Z" fill="#E11833"/>
<path d="M318.104 945.846H267.399V955.987H318.104V945.846Z" fill="#FFF0EE"/>
<path d="M338.386 945.846H318.104V955.987H338.386V945.846Z" fill="#E11833"/>
<path d="M105.141 955.987H95V966.128H105.141V955.987Z" fill="#E11833"/>
<path d="M115.282 955.987H105.141V966.128H115.282V955.987Z" fill="#FFF0EE"/>
<path d="M135.564 955.987H115.282V966.128H135.564V955.987Z" fill="#E11833"/>
<path d="M155.847 955.987H135.564V966.128H155.847V955.987Z" fill="#FFF0EE"/>
<path d="M186.27 955.987H155.847V966.128H186.27V955.987Z" fill="#E11833"/>
<path d="M196.411 955.987H186.27V966.128H196.411V955.987Z" fill="#FFF0EE"/>
<path d="M226.834 955.987H196.411V966.128H226.834V955.987Z" fill="#E11833"/>
<path d="M247.116 955.987H226.834V966.128H247.116V955.987Z" fill="#FFF0EE"/>
<path d="M267.399 955.987H247.116V966.128H267.399V955.987Z" fill="#E11833"/>
<path d="M318.104 955.987H267.399V966.128H318.104V955.987Z" fill="#FFF0EE"/>
<path d="M338.386 955.987H318.104V966.128H338.386V955.987Z" fill="#E11833"/>
<path d="M105.141 966.128H95V976.27H105.141V966.128Z" fill="#E11833"/>
<path d="M115.282 966.128H105.141V976.27H115.282V966.128Z" fill="#FFF0EE"/>
<path d="M277.54 966.128H115.282V976.27H277.54V966.128Z" fill="#E11833"/>
<path d="M307.963 966.128H277.54V976.27H307.963V966.128Z" fill="#FFF0EE"/>
<path d="M338.386 966.128H307.963V976.27H338.386V966.128Z" fill="#E11833"/>
<path d="M338.386 976.27H95V986.411H338.386V976.27Z" fill="#E11833"/>
<path d="M328.245 986.411H105.141V996.552H328.245V986.411Z" fill="#E11833"/>
<path d="M307.963 996.552H125.423V1006.69H307.963V996.552Z" fill="#E11833"/>
<path d="M287.681 1006.69H145.706V1016.83H287.681V1006.69Z" fill="#F9E8DD"/>
<path d="M287.681 1016.83H145.706V1026.98H287.681V1016.83Z" fill="#F9E8DD"/>
</g>
<defs>
<clipPath id="clip0_58_53218">
<rect width="1440" height="1024" fill="white"/>
</clipPath>
</defs>
</svg>
