<svg width="2000" height="1024" viewBox="0 0 2000 1024" fill="none" xmlns="http://www.w3.org/2000/svg">
<g clip-path="url(#clip0_58_56992)">
<rect width="2000" height="1024" fill="#3181F7"/>
<g opacity="0.95">
<circle cx="203.077" cy="208.462" r="48.4615" fill="white"/>
<circle cx="251.538" cy="256.923" r="48.4615" fill="white"/>
<circle cx="168.462" cy="256.923" r="48.4615" fill="white"/>
</g>
<g opacity="0.75">
<ellipse cx="384.769" cy="559.615" rx="64.6154" ry="64.6154" fill="white"/>
<ellipse cx="445.384" cy="624.231" rx="64.6154" ry="64.6154" fill="white"/>
<ellipse cx="335.615" cy="624.231" rx="64.6154" ry="64.6154" fill="white"/>
</g>
<g opacity="0.95">
<ellipse cx="53.8462" cy="53.8462" rx="53.8462" ry="53.8462" transform="matrix(-1 0 0 1 1765.04 77)" fill="white"/>
<ellipse cx="53.8462" cy="53.8462" rx="53.8462" ry="53.8462" transform="matrix(-1 0 0 1 1713.69 130.846)" fill="white"/>
<ellipse cx="53.8462" cy="53.8462" rx="53.8462" ry="53.8462" transform="matrix(-1 0 0 1 1804 130.846)" fill="white"/>
</g>
<g opacity="0.75">
<ellipse cx="48.4615" cy="48.4615" rx="48.4615" ry="48.4615" transform="matrix(-1 0 0 1 1981.13 397)" fill="white"/>
<ellipse cx="48.4615" cy="48.4615" rx="48.4615" ry="48.4615" transform="matrix(-1 0 0 1 1934.92 445.462)" fill="white"/>
<ellipse cx="48.4615" cy="48.4615" rx="48.4615" ry="48.4615" transform="matrix(-1 0 0 1 2018 445.462)" fill="white"/>
</g>
<g opacity="0.95">
<ellipse cx="43.0769" cy="43.0769" rx="43.0769" ry="43.0769" transform="matrix(-1 0 0 1 1580.23 604)" fill="white"/>
<ellipse cx="43.0769" cy="43.0769" rx="43.0769" ry="43.0769" transform="matrix(-1 0 0 1 1539.15 647.077)" fill="white"/>
<ellipse cx="43.0769" cy="43.0769" rx="43.0769" ry="43.0769" transform="matrix(-1 0 0 1 1613 647.077)" fill="white"/>
</g>
<g opacity="0.85">
<ellipse cx="647.365" cy="342.692" rx="37.6923" ry="37.6923" fill="white"/>
<ellipse cx="683.308" cy="380.385" rx="37.6923" ry="37.6923" fill="white"/>
<ellipse cx="618.692" cy="380.385" rx="37.6923" ry="37.6923" fill="white"/>
</g>
<path d="M1822.88 745.808H1955.99V762.504H1822.88V745.808Z" fill="#E11833"/>
<path d="M1872.79 762.505H2005.9V779.202H1872.79V762.505Z" fill="#E11833"/>
<path d="M1839.52 762.505H1872.79V779.202H1839.52V762.505Z" fill="#FFF0EE"/>
<path d="M1772.96 762.505H1839.52V779.202H1772.96V762.505Z" fill="#E11833"/>
<path d="M1989.26 779.201H2039.18V795.898H1989.26V779.201Z" fill="#E11833"/>
<path d="M1972.62 779.201H1989.26V795.898H1972.62V779.201Z" fill="#FFF0EE"/>
<path d="M1906.07 779.201H1972.62V795.898H1906.07V779.201Z" fill="#E11833"/>
<path d="M1872.79 779.201H1906.07V795.898H1872.79V779.201Z" fill="#FFF0EE"/>
<path d="M1806.24 779.201H1872.79V795.898H1806.24V779.201Z" fill="#E11833"/>
<path d="M1772.96 779.201H1806.24V795.898H1772.96V779.201Z" fill="#FFF0EE"/>
<path d="M1739.69 779.201H1772.96V795.898H1739.69V779.201Z" fill="#E11833"/>
<path d="M1922.71 795.897H2055.82V812.594H1922.71V795.897Z" fill="#E11833"/>
<path d="M1856.15 795.897H1922.71V812.594H1856.15V795.897Z" fill="#FFF0EE"/>
<path d="M1772.96 795.897H1856.15V812.594H1772.96V795.897Z" fill="#E11833"/>
<path d="M1756.32 795.897H1772.96V812.594H1756.32V795.897Z" fill="#FFF0EE"/>
<path d="M1723.05 795.897H1756.32V812.594H1723.05V795.897Z" fill="#E11833"/>
<path d="M1906.07 812.595H2072.46V829.291H1906.07V812.595Z" fill="#E11833"/>
<path d="M1872.79 812.595H1906.07V829.291H1872.79V812.595Z" fill="#FFF0EE"/>
<path d="M1706.41 812.595H1872.79V829.291H1706.41V812.595Z" fill="#E11833"/>
<path d="M1989.26 829.291H2022.54V845.988H1989.26V829.291Z" fill="#FFF0EE"/>
<path d="M1789.6 829.291H1989.26V845.988H1789.6V829.291Z" fill="#E11833"/>
<path d="M1739.69 829.291H1789.6V845.988H1739.69V829.291Z" fill="#FFF0EE"/>
<path d="M1706.41 829.291H1739.69V845.988H1706.41V829.291Z" fill="#E11833"/>
<path d="M1972.62 845.987H2039.18V862.684H1972.62V845.987Z" fill="#FFF0EE"/>
<path d="M1872.79 845.987H1972.62V862.684H1872.79V845.987Z" fill="#E11833"/>
<path d="M1839.52 845.987H1872.79V862.684H1839.52V845.987Z" fill="#FFF0EE"/>
<path d="M1806.24 845.987H1839.52V862.684H1806.24V845.987Z" fill="#E11833"/>
<path d="M1723.05 845.987H1806.24V862.684H1723.05V845.987Z" fill="#FFF0EE"/>
<path d="M1689.77 845.987H1723.05V862.684H1689.77V845.987Z" fill="#E11833"/>
<path d="M1989.26 862.685H2022.54V879.381H1989.26V862.685Z" fill="#FFF0EE"/>
<path d="M1939.35 862.685H1989.26V879.381H1939.35V862.685Z" fill="#E11833"/>
<path d="M1922.71 862.685H1939.35V879.381H1922.71V862.685Z" fill="#FFF0EE"/>
<path d="M1872.79 862.685H1922.71V879.381H1872.79V862.685Z" fill="#E11833"/>
<path d="M1839.52 862.685H1872.79V879.381H1839.52V862.685Z" fill="#FFF0EE"/>
<path d="M1806.24 862.685H1839.52V879.381H1806.24V862.685Z" fill="#E11833"/>
<path d="M1723.05 862.685H1806.24V879.381H1723.05V862.685Z" fill="#FFF0EE"/>
<path d="M1689.77 862.685H1723.05V879.381H1689.77V862.685Z" fill="#E11833"/>
<path d="M1789.6 879.381H2055.82V896.078H1789.6V879.381Z" fill="#E11833"/>
<path d="M1739.69 879.381H1789.6V896.078H1739.69V879.381Z" fill="#FFF0EE"/>
<path d="M1689.77 879.381H1739.69V896.078H1689.77V879.381Z" fill="#E11833"/>
<path d="M1689.77 896.078H2089.09V912.774H1689.77V896.078Z" fill="#E11833"/>
<path d="M1706.41 912.774H2072.46V929.471H1706.41V912.774Z" fill="#E11833"/>
<path d="M1739.69 929.472H2039.18V946.168H1739.69V929.472Z" fill="#E11833"/>
<path d="M1772.96 946.168H2005.9V962.865H1772.96V946.168Z" fill="#F9E8DD"/>
<path d="M1772.96 962.864H2005.9V979.561H1772.96V962.864Z" fill="#F9E8DD"/>
<path d="M1772.96 979.561H2005.9V996.258H1772.96V979.561Z" fill="#F9E8DD"/>
<path d="M1772.96 996.258H2005.9V1012.95H1772.96V996.258Z" fill="#F9E8DD"/>
<path d="M1772.96 1012.95H2005.9V1029.65H1772.96V1012.95Z" fill="#F9E8DD"/>
<path d="M1652.57 853.68H1746.04V865.405H1652.57V853.68Z" fill="#E11833"/>
<path d="M1687.62 865.405H1781.09V877.13H1687.62V865.405Z" fill="#E11833"/>
<path d="M1664.25 865.405H1687.62V877.13H1664.25V865.405Z" fill="#FFF0EE"/>
<path d="M1617.51 865.405H1664.25V877.13H1617.51V865.405Z" fill="#E11833"/>
<path d="M1769.41 877.13H1804.46V888.855H1769.41V877.13Z" fill="#E11833"/>
<path d="M1757.73 877.13H1769.41V888.855H1757.73V877.13Z" fill="#FFF0EE"/>
<path d="M1710.99 877.13H1757.73V888.855H1710.99V877.13Z" fill="#E11833"/>
<path d="M1687.62 877.13H1710.99V888.855H1687.62V877.13Z" fill="#FFF0EE"/>
<path d="M1640.88 877.13H1687.62V888.855H1640.88V877.13Z" fill="#E11833"/>
<path d="M1617.51 877.13H1640.88V888.855H1617.51V877.13Z" fill="#FFF0EE"/>
<path d="M1594.15 877.13H1617.51V888.855H1594.15V877.13Z" fill="#E11833"/>
<path d="M1722.67 888.855H1816.15V900.581H1722.67V888.855Z" fill="#E11833"/>
<path d="M1675.94 888.855H1722.67V900.581H1675.94V888.855Z" fill="#FFF0EE"/>
<path d="M1617.51 888.855H1675.94V900.581H1617.51V888.855Z" fill="#E11833"/>
<path d="M1605.83 888.855H1617.51V900.581H1605.83V888.855Z" fill="#FFF0EE"/>
<path d="M1582.46 888.855H1605.83V900.581H1582.46V888.855Z" fill="#E11833"/>
<path d="M1710.99 900.581H1827.83V912.306H1710.99V900.581Z" fill="#E11833"/>
<path d="M1687.62 900.581H1710.99V912.306H1687.62V900.581Z" fill="#FFF0EE"/>
<path d="M1570.78 900.581H1687.62V912.306H1570.78V900.581Z" fill="#E11833"/>
<path d="M1792.78 912.306H1827.83V924.031H1792.78V912.306Z" fill="#E11833"/>
<path d="M1769.41 912.306H1792.78V924.031H1769.41V912.306Z" fill="#FFF0EE"/>
<path d="M1629.2 912.306H1769.41V924.031H1629.2V912.306Z" fill="#E11833"/>
<path d="M1594.15 912.306H1629.2V924.031H1594.15V912.306Z" fill="#FFF0EE"/>
<path d="M1570.78 912.306H1594.15V924.031H1570.78V912.306Z" fill="#E11833"/>
<path d="M1804.46 924.031H1839.52V935.756H1804.46V924.031Z" fill="#E11833"/>
<path d="M1757.73 924.031H1804.46V935.756H1757.73V924.031Z" fill="#FFF0EE"/>
<path d="M1687.62 924.031H1757.73V935.756H1687.62V924.031Z" fill="#E11833"/>
<path d="M1664.25 924.031H1687.62V935.756H1664.25V924.031Z" fill="#FFF0EE"/>
<path d="M1640.88 924.031H1664.25V935.756H1640.88V924.031Z" fill="#E11833"/>
<path d="M1582.46 924.031H1640.88V935.756H1582.46V924.031Z" fill="#FFF0EE"/>
<path d="M1559.09 924.031H1582.46V935.756H1559.09V924.031Z" fill="#E11833"/>
<path d="M1827.83 935.756H1839.52V947.481H1827.83V935.756Z" fill="#E11833"/>
<path d="M1816.15 935.756H1827.83V947.481H1816.15V935.756Z" fill="#FFF0EE"/>
<path d="M1792.78 935.756H1816.15V947.481H1792.78V935.756Z" fill="#E11833"/>
<path d="M1769.41 935.756H1792.78V947.481H1769.41V935.756Z" fill="#FFF0EE"/>
<path d="M1734.36 935.756H1769.41V947.481H1734.36V935.756Z" fill="#E11833"/>
<path d="M1722.67 935.756H1734.36V947.481H1722.67V935.756Z" fill="#FFF0EE"/>
<path d="M1687.62 935.756H1722.67V947.481H1687.62V935.756Z" fill="#E11833"/>
<path d="M1664.25 935.756H1687.62V947.481H1664.25V935.756Z" fill="#FFF0EE"/>
<path d="M1640.88 935.756H1664.25V947.481H1640.88V935.756Z" fill="#E11833"/>
<path d="M1582.46 935.756H1640.88V947.481H1582.46V935.756Z" fill="#FFF0EE"/>
<path d="M1559.09 935.756H1582.46V947.481H1559.09V935.756Z" fill="#E11833"/>
<path d="M1827.83 947.481H1839.52V959.207H1827.83V947.481Z" fill="#E11833"/>
<path d="M1816.15 947.481H1827.83V959.207H1816.15V947.481Z" fill="#FFF0EE"/>
<path d="M1629.2 947.481H1816.15V959.207H1629.2V947.481Z" fill="#E11833"/>
<path d="M1594.15 947.481H1629.2V959.207H1594.15V947.481Z" fill="#FFF0EE"/>
<path d="M1559.09 947.481H1594.15V959.207H1559.09V947.481Z" fill="#E11833"/>
<path d="M1559.09 959.207H1839.52V970.932H1559.09V959.207Z" fill="#E11833"/>
<path d="M1570.78 970.932H1827.83V982.657H1570.78V970.932Z" fill="#E11833"/>
<path d="M1594.15 982.657H1804.46V994.382H1594.15V982.657Z" fill="#E11833"/>
<path d="M1617.51 994.382H1781.09V1006.11H1617.51V994.382Z" fill="#F9E8DD"/>
<path d="M1617.51 1006.11H1781.09V1017.83H1617.51V1006.11Z" fill="#F9E8DD"/>
<path d="M1617.51 1017.83H1781.09V1029.56H1617.51V1017.83Z" fill="#F9E8DD"/>
<path d="M164.576 776H43.5273V791.184H164.576V776Z" fill="#E11833"/>
<path d="M119.182 791.184H-1.8667V806.368H119.182V791.184Z" fill="#E11833"/>
<path d="M149.444 791.184H119.182V806.368H149.444V791.184Z" fill="#FFF0EE"/>
<path d="M209.968 791.184H149.444V806.368H209.968V791.184Z" fill="#E11833"/>
<path d="M13.2648 806.368H-32.1284V821.552H13.2648V806.368Z" fill="#E11833"/>
<path d="M28.3952 806.368H13.2642V821.552H28.3952V806.368Z" fill="#FFF0EE"/>
<path d="M88.9198 806.368H28.3955V821.552H88.9198V806.368Z" fill="#E11833"/>
<path d="M119.182 806.368H88.9194V821.552H119.182V806.368Z" fill="#FFF0EE"/>
<path d="M179.706 806.368H119.182V821.552H179.706V806.368Z" fill="#E11833"/>
<path d="M209.968 806.368H179.706V821.552H209.968V806.368Z" fill="#FFF0EE"/>
<path d="M240.23 806.368H209.968V821.552H240.23V806.368Z" fill="#E11833"/>
<path d="M73.7882 821.552H-47.2603V836.736H73.7882V821.552Z" fill="#E11833"/>
<path d="M134.313 821.552H73.7886V836.736H134.313V821.552Z" fill="#FFF0EE"/>
<path d="M209.968 821.552H134.313V836.736H209.968V821.552Z" fill="#E11833"/>
<path d="M225.099 821.552H209.968V836.736H225.099V821.552Z" fill="#FFF0EE"/>
<path d="M255.361 821.552H225.099V836.736H255.361V821.552Z" fill="#E11833"/>
<path d="M88.9195 836.736H-62.3911V851.92H88.9195V836.736Z" fill="#E11833"/>
<path d="M119.182 836.736H88.9194V851.92H119.182V836.736Z" fill="#FFF0EE"/>
<path d="M270.493 836.736H119.182V851.92H270.493V836.736Z" fill="#E11833"/>
<path d="M13.2646 851.92H-16.9976V867.104H13.2646V851.92Z" fill="#FFF0EE"/>
<path d="M194.837 851.92H13.2642V867.104H194.837V851.92Z" fill="#E11833"/>
<path d="M240.231 851.92H194.837V867.104H240.231V851.92Z" fill="#FFF0EE"/>
<path d="M270.492 851.92H240.23V867.104H270.492V851.92Z" fill="#E11833"/>
<path d="M28.3958 867.104H-32.1284V882.288H28.3958V867.104Z" fill="#FFF0EE"/>
<path d="M119.182 867.104H28.3955V882.288H119.182V867.104Z" fill="#E11833"/>
<path d="M149.444 867.104H119.182V882.288H149.444V867.104Z" fill="#FFF0EE"/>
<path d="M179.706 867.104H149.444V882.288H179.706V867.104Z" fill="#E11833"/>
<path d="M255.361 867.104H179.706V882.288H255.361V867.104Z" fill="#FFF0EE"/>
<path d="M285.623 867.104H255.361V882.288H285.623V867.104Z" fill="#E11833"/>
<path d="M13.2646 882.289H-16.9976V897.473H13.2646V882.289Z" fill="#FFF0EE"/>
<path d="M58.6573 882.289H13.2642V897.473H58.6573V882.289Z" fill="#E11833"/>
<path d="M73.7888 882.289H58.6577V897.473H73.7888V882.289Z" fill="#FFF0EE"/>
<path d="M119.182 882.289H73.7886V897.473H119.182V882.289Z" fill="#E11833"/>
<path d="M149.444 882.289H119.182V897.473H149.444V882.289Z" fill="#FFF0EE"/>
<path d="M179.706 882.289H149.444V897.473H179.706V882.289Z" fill="#E11833"/>
<path d="M255.361 882.289H179.706V897.473H255.361V882.289Z" fill="#FFF0EE"/>
<path d="M285.623 882.288H255.361V897.472H285.623V882.288Z" fill="#E11833"/>
<path d="M194.837 897.472H-47.2603V912.656H194.837V897.472Z" fill="#E11833"/>
<path d="M240.231 897.472H194.837V912.656H240.231V897.472Z" fill="#FFF0EE"/>
<path d="M285.623 897.472H240.23V912.656H285.623V897.472Z" fill="#E11833"/>
<path d="M285.624 912.657H-77.522V927.841H285.624V912.657Z" fill="#E11833"/>
<path d="M270.492 927.84H-62.3911V943.024H270.492V927.84Z" fill="#E11833"/>
<path d="M240.231 943.025H-32.1284V958.209H240.231V943.025Z" fill="#E11833"/>
<path d="M209.968 958.208H-1.8667V973.393H209.968V958.208Z" fill="#F9E8DD"/>
<path d="M209.968 973.393H-1.8667V988.577H209.968V973.393Z" fill="#F9E8DD"/>
<path d="M209.968 988.577H-1.8667V1003.76H209.968V988.577Z" fill="#F9E8DD"/>
<path d="M209.968 1003.76H-1.8667V1018.94H209.968V1003.76Z" fill="#F9E8DD"/>
<path d="M209.968 1018.94H-1.8667V1034.13H209.968V1018.94Z" fill="#F9E8DD"/>
<path d="M307.471 875.889H222.465V886.552H307.471V875.889Z" fill="#E11833"/>
<path d="M275.594 886.552H190.588V897.215H275.594V886.552Z" fill="#E11833"/>
<path d="M296.845 886.552H275.594V897.215H296.845V886.552Z" fill="#FFF0EE"/>
<path d="M339.349 886.552H296.846V897.215H339.349V886.552Z" fill="#E11833"/>
<path d="M201.214 897.215H169.337V907.878H201.214V897.215Z" fill="#E11833"/>
<path d="M211.84 897.215H201.214V907.878H211.84V897.215Z" fill="#FFF0EE"/>
<path d="M254.343 897.215H211.84V907.878H254.343V897.215Z" fill="#E11833"/>
<path d="M275.594 897.215H254.343V907.878H275.594V897.215Z" fill="#FFF0EE"/>
<path d="M318.097 897.215H275.594V907.878H318.097V897.215Z" fill="#E11833"/>
<path d="M339.349 897.215H318.097V907.878H339.349V897.215Z" fill="#FFF0EE"/>
<path d="M360.6 897.214H339.349V907.877H360.6V897.214Z" fill="#E11833"/>
<path d="M243.717 907.877H158.711V918.54H243.717V907.877Z" fill="#E11833"/>
<path d="M286.22 907.877H243.717V918.54H286.22V907.877Z" fill="#FFF0EE"/>
<path d="M339.349 907.878H286.221V918.541H339.349V907.878Z" fill="#E11833"/>
<path d="M349.974 907.877H339.349V918.54H349.974V907.877Z" fill="#FFF0EE"/>
<path d="M371.226 907.877H349.974V918.54H371.226V907.877Z" fill="#E11833"/>
<path d="M254.343 918.541H148.085V929.204H254.343V918.541Z" fill="#E11833"/>
<path d="M275.594 918.541H254.343V929.203H275.594V918.541Z" fill="#FFF0EE"/>
<path d="M381.851 918.541H275.594V929.203H381.851V918.541Z" fill="#E11833"/>
<path d="M179.962 929.204H148.085V939.867H179.962V929.204Z" fill="#E11833"/>
<path d="M201.214 929.204H179.962V939.867H201.214V929.204Z" fill="#FFF0EE"/>
<path d="M328.723 929.204H201.214V939.867H328.723V929.204Z" fill="#E11833"/>
<path d="M360.6 929.204H328.723V939.867H360.6V929.204Z" fill="#FFF0EE"/>
<path d="M381.852 929.204H360.6V939.867H381.852V929.204Z" fill="#E11833"/>
<path d="M169.337 939.866H137.459V950.529H169.337V939.866Z" fill="#E11833"/>
<path d="M211.84 939.866H169.337V950.529H211.84V939.866Z" fill="#FFF0EE"/>
<path d="M275.594 939.866H211.84V950.529H275.594V939.866Z" fill="#E11833"/>
<path d="M296.845 939.866H275.594V950.529H296.845V939.866Z" fill="#FFF0EE"/>
<path d="M318.097 939.866H296.846V950.529H318.097V939.866Z" fill="#E11833"/>
<path d="M371.226 939.866H318.097V950.529H371.226V939.866Z" fill="#FFF0EE"/>
<path d="M392.477 939.866H371.226V950.529H392.477V939.866Z" fill="#E11833"/>
<path d="M148.085 950.529H137.459V961.192H148.085V950.529Z" fill="#E11833"/>
<path d="M158.711 950.529H148.085V961.192H158.711V950.529Z" fill="#FFF0EE"/>
<path d="M179.962 950.529H158.711V961.192H179.962V950.529Z" fill="#E11833"/>
<path d="M201.214 950.529H179.962V961.192H201.214V950.529Z" fill="#FFF0EE"/>
<path d="M233.091 950.529H201.214V961.192H233.091V950.529Z" fill="#E11833"/>
<path d="M243.717 950.529H233.091V961.192H243.717V950.529Z" fill="#FFF0EE"/>
<path d="M275.594 950.529H243.717V961.192H275.594V950.529Z" fill="#E11833"/>
<path d="M296.845 950.529H275.594V961.192H296.845V950.529Z" fill="#FFF0EE"/>
<path d="M318.097 950.529H296.846V961.192H318.097V950.529Z" fill="#E11833"/>
<path d="M371.226 950.529H318.097V961.192H371.226V950.529Z" fill="#FFF0EE"/>
<path d="M392.477 950.529H371.226V961.192H392.477V950.529Z" fill="#E11833"/>
<path d="M148.085 961.192H137.459V971.855H148.085V961.192Z" fill="#E11833"/>
<path d="M158.711 961.192H148.085V971.855H158.711V961.192Z" fill="#FFF0EE"/>
<path d="M328.723 961.192H158.711V971.855H328.723V961.192Z" fill="#E11833"/>
<path d="M360.6 961.192H328.723V971.855H360.6V961.192Z" fill="#FFF0EE"/>
<path d="M392.477 961.192H360.6V971.855H392.477V961.192Z" fill="#E11833"/>
<path d="M392.477 971.855H137.459V982.518H392.477V971.855Z" fill="#E11833"/>
<path d="M381.851 982.518H148.085V993.181H381.851V982.518Z" fill="#E11833"/>
<path d="M360.6 993.181H169.337V1003.84H360.6V993.181Z" fill="#E11833"/>
<path d="M339.349 1003.84H190.588V1014.51H339.349V1003.84Z" fill="#F9E8DD"/>
<path d="M339.349 1014.51H190.588V1025.17H339.349V1014.51Z" fill="#F9E8DD"/>
</g>
<defs>
<clipPath id="clip0_58_56992">
<rect width="2000" height="1024" fill="white"/>
</clipPath>
</defs>
</svg>
