<svg width="221" height="221" viewBox="0 0 221 221" fill="none" xmlns="http://www.w3.org/2000/svg">
<g clip-path="url(#clip0_58_54857)">
<path d="M158.844 145.031H62.1562V151.938H158.844V145.031Z" fill="#1F1D29"/>
<path d="M158.844 151.938H62.1562V158.844H158.844V151.938Z" fill="#1F1D29"/>
<path d="M158.844 158.844H62.1562V165.75H158.844V158.844Z" fill="#1F1D29"/>
<path d="M158.844 165.75H62.1562V172.656H158.844V165.75Z" fill="#1F1D29"/>
<path d="M75.9688 172.656H62.1562V179.562H75.9688V172.656Z" fill="#1F1D29"/>
<path d="M158.844 172.656H82.875V179.562H158.844V172.656Z" fill="#1F1D29"/>
<path d="M75.9688 179.562H62.1562V186.469H75.9688V179.562Z" fill="#1F1D29"/>
<path d="M158.844 179.562H82.875V186.469H158.844V179.562Z" fill="#1F1D29"/>
<path d="M75.9688 186.469H62.1562V193.375H75.9688V186.469Z" fill="#1F1D29"/>
<path d="M158.844 186.469H82.875V193.375H158.844V186.469Z" fill="#1F1D29"/>
<path d="M75.9688 193.375H62.1562V200.281H75.9688V193.375Z" fill="#1F1D29"/>
<path d="M158.844 193.375H82.875V200.281H158.844V193.375Z" fill="#1F1D29"/>
<path d="M75.9688 200.281H62.1562V207.188H75.9688V200.281Z" fill="#1F1D29"/>
<path d="M158.844 200.281H82.875V207.188H158.844V200.281Z" fill="#1F1D29"/>
<path d="M75.9688 207.188H62.1562V214.094H75.9688V207.188Z" fill="#1F1D29"/>
<path d="M158.844 207.188H82.875V214.094H158.844V207.188Z" fill="#1F1D29"/>
<path d="M75.9688 214.094H62.1562V221H75.9688V214.094Z" fill="#1F1D29"/>
<path d="M158.844 214.094H82.875V221H158.844V214.094Z" fill="#1F1D29"/>
<path d="M75.9688 145.031H62.1562V151.938H75.9688V145.031Z" fill="#DF2C39"/>
<path d="M89.7812 145.031H75.9688V151.938H89.7812V145.031Z" fill="black"/>
<path d="M103.594 145.031H89.7812V151.938H103.594V145.031Z" fill="#DF2C39"/>
<path d="M117.406 145.031H103.594V151.938H117.406V145.031Z" fill="black"/>
<path d="M131.219 145.031H117.406V151.938H131.219V145.031Z" fill="#DF2C39"/>
<path d="M145.031 145.031H131.219V151.938H145.031V145.031Z" fill="black"/>
<path d="M158.844 145.031H145.031V151.938H158.844V145.031Z" fill="#DF2C39"/>
<path d="M75.9688 151.938H62.1562V158.844H75.9688V151.938Z" fill="#DF2C39"/>
<path d="M89.7812 151.938H75.9688V158.844H89.7812V151.938Z" fill="black"/>
<path d="M103.594 151.938H89.7812V158.844H103.594V151.938Z" fill="#DF2C39"/>
<path d="M117.406 151.938H103.594V158.844H117.406V151.938Z" fill="black"/>
<path d="M131.219 151.938H117.406V158.844H131.219V151.938Z" fill="#DF2C39"/>
<path d="M145.031 151.938H131.219V158.844H145.031V151.938Z" fill="black"/>
<path d="M158.844 151.938H145.031V158.844H158.844V151.938Z" fill="#DF2C39"/>
<path d="M75.9688 158.844H62.1562V165.75H75.9688V158.844Z" fill="black"/>
<path d="M89.7812 158.844H75.9688V165.75H89.7812V158.844Z" fill="#F938D8"/>
<path d="M103.594 158.844H89.7812V165.75H103.594V158.844Z" fill="black"/>
<path d="M117.406 158.844H103.594V165.75H117.406V158.844Z" fill="#F938D8"/>
<path d="M131.219 158.844H117.406V165.75H131.219V158.844Z" fill="black"/>
<path d="M145.031 158.844H131.219V165.75H145.031V158.844Z" fill="#F938D8"/>
<path d="M158.844 158.844H145.031V165.75H158.844V158.844Z" fill="black"/>
<path d="M75.9688 165.75H62.1562V172.656H75.9688V165.75Z" fill="black"/>
<path d="M89.7812 165.75H75.9688V172.656H89.7812V165.75Z" fill="#F938D8"/>
<path d="M103.594 165.75H89.7812V172.656H103.594V165.75Z" fill="black"/>
<path d="M117.406 165.75H103.594V172.656H117.406V165.75Z" fill="#F938D8"/>
<path d="M131.219 165.75H117.406V172.656H131.219V165.75Z" fill="black"/>
<path d="M145.031 165.75H131.219V172.656H145.031V165.75Z" fill="#F938D8"/>
<path d="M158.844 165.75H145.031V172.656H158.844V165.75Z" fill="black"/>
<path d="M75.9688 172.656H62.1562V179.562H75.9688V172.656Z" fill="#5C25FB"/>
<path d="M89.7812 172.656H82.875V179.562H89.7812V172.656Z" fill="black"/>
<path d="M103.594 172.656H89.7812V179.562H103.594V172.656Z" fill="#5C25FB"/>
<path d="M117.406 172.656H103.594V179.562H117.406V172.656Z" fill="black"/>
<path d="M131.219 172.656H117.406V179.562H131.219V172.656Z" fill="#5C25FB"/>
<path d="M145.031 172.656H131.219V179.562H145.031V172.656Z" fill="black"/>
<path d="M158.844 172.656H145.031V179.562H158.844V172.656Z" fill="#5C25FB"/>
<path d="M75.9688 179.562H62.1562V186.469H75.9688V179.562Z" fill="#5C25FB"/>
<path d="M89.7812 179.562H82.875V186.469H89.7812V179.562Z" fill="black"/>
<path d="M103.594 179.562H89.7812V186.469H103.594V179.562Z" fill="#5C25FB"/>
<path d="M117.406 179.562H103.594V186.469H117.406V179.562Z" fill="black"/>
<path d="M131.219 179.562H117.406V186.469H131.219V179.562Z" fill="#5C25FB"/>
<path d="M145.031 179.562H131.219V186.469H145.031V179.562Z" fill="black"/>
<path d="M158.844 179.562H145.031V186.469H158.844V179.562Z" fill="#5C25FB"/>
<path d="M75.9688 186.469H62.1562V193.375H75.9688V186.469Z" fill="black"/>
<path d="M89.7812 186.469H82.875V193.375H89.7812V186.469Z" fill="#2A86FD"/>
<path d="M103.594 186.469H89.7812V193.375H103.594V186.469Z" fill="black"/>
<path d="M117.406 186.469H103.594V193.375H117.406V186.469Z" fill="#2A86FD"/>
<path d="M131.219 186.469H117.406V193.375H131.219V186.469Z" fill="black"/>
<path d="M145.031 186.469H131.219V193.375H145.031V186.469Z" fill="#2A86FD"/>
<path d="M158.844 186.469H145.031V193.375H158.844V186.469Z" fill="black"/>
<path d="M75.9688 193.375H62.1562V200.281H75.9688V193.375Z" fill="black"/>
<path d="M89.7812 193.375H82.875V200.281H89.7812V193.375Z" fill="#2A86FD"/>
<path d="M103.594 193.375H89.7812V200.281H103.594V193.375Z" fill="black"/>
<path d="M117.406 193.375H103.594V200.281H117.406V193.375Z" fill="#2A86FD"/>
<path d="M131.219 193.375H117.406V200.281H131.219V193.375Z" fill="black"/>
<path d="M145.031 193.375H131.219V200.281H145.031V193.375Z" fill="#2A86FD"/>
<path d="M158.844 193.375H145.031V200.281H158.844V193.375Z" fill="black"/>
<path d="M75.9688 200.281H62.1562V207.188H75.9688V200.281Z" fill="#45FAFF"/>
<path d="M89.7812 200.281H82.875V207.188H89.7812V200.281Z" fill="black"/>
<path d="M103.594 200.281H89.7812V207.188H103.594V200.281Z" fill="#45FAFF"/>
<path d="M117.406 200.281H103.594V207.188H117.406V200.281Z" fill="black"/>
<path d="M131.219 200.281H117.406V207.188H131.219V200.281Z" fill="#45FAFF"/>
<path d="M145.031 200.281H131.219V207.188H145.031V200.281Z" fill="black"/>
<path d="M158.844 200.281H145.031V207.188H158.844V200.281Z" fill="#45FAFF"/>
<path d="M75.9688 207.188H62.1562V214.094H75.9688V207.188Z" fill="#45FAFF"/>
<path d="M89.7812 207.188H82.875V214.094H89.7812V207.188Z" fill="black"/>
<path d="M103.594 207.188H89.7812V214.094H103.594V207.188Z" fill="#45FAFF"/>
<path d="M117.406 207.188H103.594V214.094H117.406V207.188Z" fill="black"/>
<path d="M131.219 207.188H117.406V214.094H131.219V207.188Z" fill="#45FAFF"/>
<path d="M145.031 207.188H131.219V214.094H145.031V207.188Z" fill="black"/>
<path d="M158.844 207.188H145.031V214.094H158.844V207.188Z" fill="#45FAFF"/>
<path d="M75.9688 214.094H62.1562V221H75.9688V214.094Z" fill="black"/>
<path d="M89.7812 214.094H82.875V221H89.7812V214.094Z" fill="#38DD56"/>
<path d="M103.594 214.094H89.7812V221H103.594V214.094Z" fill="black"/>
<path d="M117.406 214.094H103.594V221H117.406V214.094Z" fill="#38DD56"/>
<path d="M131.219 214.094H117.406V221H131.219V214.094Z" fill="black"/>
<path d="M145.031 214.094H131.219V221H145.031V214.094Z" fill="#38DD56"/>
<path d="M158.844 214.094H145.031V221H158.844V214.094Z" fill="black"/>
<path d="M117.406 13.8125H103.594V20.7188H117.406V13.8125Z" fill="#D4A015"/>
<path d="M82.875 20.7188H75.9688V27.625H82.875V20.7188Z" fill="#FFF671"/>
<path d="M103.594 20.7188H96.6875V27.625H103.594V20.7188Z" fill="#D4A015"/>
<path d="M117.406 20.7188H103.594V27.625H117.406V20.7188Z" fill="#FFF671"/>
<path d="M124.312 20.7188H117.406V27.625H124.312V20.7188Z" fill="#D4A015"/>
<path d="M103.594 27.625H96.6875V34.5312H103.594V27.625Z" fill="#D4A015"/>
<path d="M117.406 27.625H103.594V34.5312H117.406V27.625Z" fill="#FFF671"/>
<path d="M124.312 27.625H117.406V34.5312H124.312V27.625Z" fill="#D4A015"/>
<path d="M96.6875 34.5312H89.7812V41.4375H96.6875V34.5312Z" fill="#D4A015"/>
<path d="M124.312 34.5312H96.6875V41.4375H124.312V34.5312Z" fill="#FFF671"/>
<path d="M131.219 34.5312H124.312V41.4375H131.219V34.5312Z" fill="#D4A015"/>
<path d="M158.844 34.5312H151.938V41.4375H158.844V34.5312Z" fill="#FFF671"/>
<path d="M172.656 34.5312H165.75V41.4375H172.656V34.5312Z" fill="#FFF671"/>
<path d="M62.1562 41.4375H55.25V48.3438H62.1562V41.4375Z" fill="#FFF671"/>
<path d="M96.6875 41.4375H89.7812V48.3438H96.6875V41.4375Z" fill="#D4A015"/>
<path d="M124.312 41.4375H96.6875V48.3438H124.312V41.4375Z" fill="#FFF671"/>
<path d="M131.219 41.4375H124.312V48.3438H131.219V41.4375Z" fill="#D4A015"/>
<path d="M165.75 41.4375H158.844V48.3438H165.75V41.4375Z" fill="#FFF671"/>
<path d="M69.0625 48.3438H48.3438V55.25H69.0625V48.3438Z" fill="#FFF671"/>
<path d="M89.7812 48.3438H82.875V55.25H89.7812V48.3438Z" fill="#D4A015"/>
<path d="M131.219 48.3438H89.7812V55.25H131.219V48.3438Z" fill="#FFF671"/>
<path d="M138.125 48.3438H131.219V55.25H138.125V48.3438Z" fill="#D4A015"/>
<path d="M158.844 48.3438H151.938V55.25H158.844V48.3438Z" fill="#FFF671"/>
<path d="M172.656 48.3438H165.75V55.25H172.656V48.3438Z" fill="#FFF671"/>
<path d="M62.1562 55.25H55.25V62.1562H62.1562V55.25Z" fill="#FFF671"/>
<path d="M89.7812 55.25H82.875V62.1562H89.7812V55.25Z" fill="#D4A015"/>
<path d="M131.219 55.25H89.7812V62.1562H131.219V55.25Z" fill="#FFF671"/>
<path d="M138.125 55.25H131.219V62.1562H138.125V55.25Z" fill="#D4A015"/>
<path d="M82.875 62.1562H69.0625V69.0625H82.875V62.1562Z" fill="#D4A015"/>
<path d="M138.125 62.1562H82.875V69.0625H138.125V62.1562Z" fill="#FFF671"/>
<path d="M151.938 62.1562H138.125V69.0625H151.938V62.1562Z" fill="#D4A015"/>
<path d="M69.0625 69.0625H55.25V75.9688H69.0625V69.0625Z" fill="#D4A015"/>
<path d="M151.938 69.0625H69.0625V75.9688H151.938V69.0625Z" fill="#FFF671"/>
<path d="M165.75 69.0625H151.938V75.9688H165.75V69.0625Z" fill="#D4A015"/>
<path d="M55.25 75.9688H41.4375V82.875H55.25V75.9688Z" fill="#D4A015"/>
<path d="M165.75 75.9688H55.25V82.875H165.75V75.9688Z" fill="#FFF671"/>
<path d="M179.562 75.9688H165.75V82.875H179.562V75.9688Z" fill="#D4A015"/>
<path d="M41.4375 82.875H34.5312V89.7812H41.4375V82.875Z" fill="#D4A015"/>
<path d="M179.562 82.875H41.4375V89.7812H179.562V82.875Z" fill="#FFF671"/>
<path d="M186.469 82.875H179.562V89.7812H186.469V82.875Z" fill="#D4A015"/>
<path d="M41.4375 89.7812H34.5312V96.6875H41.4375V89.7812Z" fill="#D4A015"/>
<path d="M179.562 89.7812H41.4375V96.6875H179.562V89.7812Z" fill="#FFF671"/>
<path d="M186.469 89.7812H179.562V96.6875H186.469V89.7812Z" fill="#D4A015"/>
<path d="M55.25 96.6875H41.4375V103.594H55.25V96.6875Z" fill="#D4A015"/>
<path d="M165.75 96.6875H55.25V103.594H165.75V96.6875Z" fill="#FFF671"/>
<path d="M179.562 96.6875H165.75V103.594H179.562V96.6875Z" fill="#D4A015"/>
<path d="M69.0625 103.594H55.25V110.5H69.0625V103.594Z" fill="#D4A015"/>
<path d="M151.938 103.594H69.0625V110.5H151.938V103.594Z" fill="#FFF671"/>
<path d="M165.75 103.594H151.938V110.5H165.75V103.594Z" fill="#D4A015"/>
<path d="M75.9688 110.5H69.0625V117.406H75.9688V110.5Z" fill="#D4A015"/>
<path d="M145.031 110.5H75.9688V117.406H145.031V110.5Z" fill="#FFF671"/>
<path d="M151.938 110.5H145.031V117.406H151.938V110.5Z" fill="#D4A015"/>
<path d="M75.9688 117.406H69.0625V124.312H75.9688V117.406Z" fill="#D4A015"/>
<path d="M145.031 117.406H75.9688V124.312H145.031V117.406Z" fill="#FFF671"/>
<path d="M151.938 117.406H145.031V124.312H151.938V117.406Z" fill="#D4A015"/>
<path d="M48.3438 124.312H41.4375V131.219H48.3438V124.312Z" fill="#FFF671"/>
<path d="M69.0625 124.312H62.1562V131.219H69.0625V124.312Z" fill="#D4A015"/>
<path d="M117.406 124.312H69.0625V131.219H117.406V124.312Z" fill="#FFF671"/>
<path d="M138.125 124.312H117.406V131.219H138.125V124.312Z" fill="#D4A015"/>
<path d="M151.938 124.312H138.125V131.219H151.938V124.312Z" fill="#FFF671"/>
<path d="M158.844 124.312H151.938V131.219H158.844V124.312Z" fill="#D4A015"/>
<path d="M69.0625 131.219H62.1562V138.125H69.0625V131.219Z" fill="#D4A015"/>
<path d="M151.938 131.219H69.0625V138.125H151.938V131.219Z" fill="#FFF671"/>
<path d="M158.844 131.219H151.938V138.125H158.844V131.219Z" fill="#D4A015"/>
<path d="M62.1562 138.125H55.25V145.031H62.1562V138.125Z" fill="#D4A015"/>
<path d="M103.594 138.125H62.1562V145.031H103.594V138.125Z" fill="#FFF671"/>
<path d="M117.406 138.125H103.594V145.031H117.406V138.125Z" fill="#D4A015"/>
<path d="M158.844 138.125H117.406V145.031H158.844V138.125Z" fill="#FFF671"/>
<path d="M165.75 138.125H158.844V145.031H165.75V138.125Z" fill="#D4A015"/>
<path d="M62.1562 145.031H55.25V151.938H62.1562V145.031Z" fill="#D4A015"/>
<path d="M89.7812 145.031H62.1562V151.938H89.7812V145.031Z" fill="#FFF671"/>
<path d="M103.594 145.031H89.7812V151.938H103.594V145.031Z" fill="#D4A015"/>
<path d="M131.219 145.031H117.406V151.938H131.219V145.031Z" fill="#D4A015"/>
<path d="M158.844 145.031H131.219V151.938H158.844V145.031Z" fill="#FFF671"/>
<path d="M165.75 145.031H158.844V151.938H165.75V145.031Z" fill="#D4A015"/>
<path d="M62.1562 151.938H55.25V158.844H62.1562V151.938Z" fill="#D4A015"/>
<path d="M75.9688 151.938H62.1562V158.844H75.9688V151.938Z" fill="#FFF671"/>
<path d="M89.7812 151.938H75.9688V158.844H89.7812V151.938Z" fill="#D4A015"/>
<path d="M145.031 151.938H131.219V158.844H145.031V151.938Z" fill="#D4A015"/>
<path d="M158.844 151.938H145.031V158.844H158.844V151.938Z" fill="#FFF671"/>
<path d="M165.75 151.938H158.844V158.844H165.75V151.938Z" fill="#D4A015"/>
<path d="M75.9688 158.844H62.1562V165.75H75.9688V158.844Z" fill="#D4A015"/>
<path d="M158.844 158.844H145.031V165.75H158.844V158.844Z" fill="#D4A015"/>
<path d="M110.5 75.9688H69.0625V82.875H110.5V75.9688Z" fill="black"/>
<path d="M158.844 75.9688H117.406V82.875H158.844V75.9688Z" fill="black"/>
<path d="M89.7812 82.875H69.0625V89.7812H89.7812V82.875Z" fill="black"/>
<path d="M96.6875 82.875H89.7812V89.7812H96.6875V82.875Z" fill="#FF0E0E"/>
<path d="M110.5 82.875H96.6875V89.7812H110.5V82.875Z" fill="black"/>
<path d="M138.125 82.875H117.406V89.7812H138.125V82.875Z" fill="black"/>
<path d="M145.031 82.875H138.125V89.7812H145.031V82.875Z" fill="#FF0E0E"/>
<path d="M158.844 82.875H145.031V89.7812H158.844V82.875Z" fill="black"/>
<path d="M158.844 89.7812H48.3438V96.6875H158.844V89.7812Z" fill="black"/>
<path d="M55.25 96.6875H48.3438V103.594H55.25V96.6875Z" fill="black"/>
<path d="M75.9688 96.6875H69.0625V103.594H75.9688V96.6875Z" fill="black"/>
<path d="M82.875 96.6875H75.9688V103.594H82.875V96.6875Z" fill="#0ADC4D"/>
<path d="M96.6875 96.6875H82.875V103.594H96.6875V96.6875Z" fill="black"/>
<path d="M103.594 96.6875H96.6875V103.594H103.594V96.6875Z" fill="#1929F4"/>
<path d="M110.5 96.6875H103.594V103.594H110.5V96.6875Z" fill="black"/>
<path d="M124.312 96.6875H117.406V103.594H124.312V96.6875Z" fill="black"/>
<path d="M131.219 96.6875H124.312V103.594H131.219V96.6875Z" fill="#0ADC4D"/>
<path d="M145.031 96.6875H131.219V103.594H145.031V96.6875Z" fill="black"/>
<path d="M151.938 96.6875H145.031V103.594H151.938V96.6875Z" fill="#1929F4"/>
<path d="M158.844 96.6875H151.938V103.594H158.844V96.6875Z" fill="black"/>
<path d="M55.25 103.594H48.3438V110.5H55.25V103.594Z" fill="black"/>
<path d="M110.5 103.594H69.0625V110.5H110.5V103.594Z" fill="black"/>
<path d="M158.844 103.594H117.406V110.5H158.844V103.594Z" fill="black"/>
<path d="M110.5 110.5H69.0625V117.406H110.5V110.5Z" fill="black"/>
<path d="M158.844 110.5H117.406V117.406H158.844V110.5Z" fill="black"/>
</g>
<defs>
<clipPath id="clip0_58_54857">
<rect width="221" height="221" fill="white"/>
</clipPath>
</defs>
</svg>
