<svg width="320" height="320" viewBox="0 0 320 320" fill="none" xmlns="http://www.w3.org/2000/svg">
<path d="M200 40H150V50H200V40Z" fill="white"/>
<path d="M220 50H130V60H220V50Z" fill="white"/>
<path d="M230 60H120V70H230V60Z" fill="white"/>
<path d="M240 70H110V80H240V70Z" fill="white"/>
<path d="M250 80H100V90H250V80Z" fill="white"/>
<path d="M250 90H80V100H250V90Z" fill="white"/>
<path d="M260 100H60V110H260V100Z" fill="white"/>
<path d="M260 110H50V120H260V110Z" fill="white"/>
<path d="M260 120H50V130H260V120Z" fill="white"/>
<path d="M260 130H40V140H260V130Z" fill="white"/>
<path d="M270 140H40V150H270V140Z" fill="white"/>
<path d="M280 150H40V160H280V150Z" fill="white"/>
<path d="M280 160H40V170H280V160Z" fill="white"/>
<path d="M280 170H50V180H280V170Z" fill="white"/>
<path d="M280 180H50V190H280V180Z" fill="white"/>
<path d="M270 190H60V200H270V190Z" fill="white"/>
<path d="M260 200H80V210H260V200Z" fill="white"/>
</svg>
