<svg width="221" height="221" viewBox="0 0 221 221" fill="none" xmlns="http://www.w3.org/2000/svg">
<g clip-path="url(#clip0_58_54203)">
<path d="M158.844 145.031H62.1562V151.938H158.844V145.031Z" fill="#FE500C"/>
<path d="M158.844 151.938H62.1562V158.844H158.844V151.938Z" fill="#FE500C"/>
<path d="M158.844 158.844H62.1562V165.75H158.844V158.844Z" fill="#FE500C"/>
<path d="M158.844 165.75H62.1562V172.656H158.844V165.75Z" fill="#FE500C"/>
<path d="M75.9688 172.656H62.1562V179.562H75.9688V172.656Z" fill="#FE500C"/>
<path d="M158.844 172.656H82.875V179.562H158.844V172.656Z" fill="#FE500C"/>
<path d="M75.9688 179.562H62.1562V186.469H75.9688V179.562Z" fill="#FE500C"/>
<path d="M158.844 179.562H82.875V186.469H158.844V179.562Z" fill="#FE500C"/>
<path d="M75.9688 186.469H62.1562V193.375H75.9688V186.469Z" fill="#FE500C"/>
<path d="M158.844 186.469H82.875V193.375H158.844V186.469Z" fill="#FE500C"/>
<path d="M75.9688 193.375H62.1562V200.281H75.9688V193.375Z" fill="#FE500C"/>
<path d="M158.844 193.375H82.875V200.281H158.844V193.375Z" fill="#FE500C"/>
<path d="M75.9688 200.281H62.1562V207.188H75.9688V200.281Z" fill="#FE500C"/>
<path d="M158.844 200.281H82.875V207.188H158.844V200.281Z" fill="#FE500C"/>
<path d="M75.9688 207.188H62.1562V214.094H75.9688V207.188Z" fill="#FE500C"/>
<path d="M158.844 207.188H82.875V214.094H158.844V207.188Z" fill="#FE500C"/>
<path d="M75.9688 214.094H62.1562V221H75.9688V214.094Z" fill="#FE500C"/>
<path d="M158.844 214.094H82.875V221H158.844V214.094Z" fill="#FE500C"/>
<path d="M103.594 27.625H69.0625V34.5312H103.594V27.625Z" fill="#EEDC00"/>
<path d="M138.125 27.625H103.594V34.5312H138.125V27.625Z" fill="#FFF006"/>
<path d="M103.594 34.5312H62.1562V41.4375H103.594V34.5312Z" fill="#FFF006"/>
<path d="M110.5 34.5312H103.594V41.4375H110.5V34.5312Z" fill="#EEDC00"/>
<path d="M145.031 34.5312H110.5V41.4375H145.031V34.5312Z" fill="#FFF006"/>
<path d="M96.6875 41.4375H55.25V48.3438H96.6875V41.4375Z" fill="#EEDC00"/>
<path d="M110.5 41.4375H96.6875V48.3438H110.5V41.4375Z" fill="#FFF006"/>
<path d="M117.406 41.4375H110.5V48.3438H117.406V41.4375Z" fill="#EEDC00"/>
<path d="M151.938 41.4375H117.406V48.3438H151.938V41.4375Z" fill="#FFF006"/>
<path d="M96.6875 48.3438H48.3438V55.25H96.6875V48.3438Z" fill="#FFF006"/>
<path d="M103.594 48.3438H96.6875V55.25H103.594V48.3438Z" fill="#EEDC00"/>
<path d="M117.406 48.3438H103.594V55.25H117.406V48.3438Z" fill="#FFF006"/>
<path d="M124.312 48.3438H117.406V55.25H124.312V48.3438Z" fill="#EEDC00"/>
<path d="M158.844 48.3438H124.312V55.25H158.844V48.3438Z" fill="#FFF006"/>
<path d="M103.594 55.25H48.3438V62.1562H103.594V55.25Z" fill="#FFF006"/>
<path d="M110.5 55.25H103.594V62.1562H110.5V55.25Z" fill="#EEDC00"/>
<path d="M117.406 55.25H110.5V62.1562H117.406V55.25Z" fill="#FFF006"/>
<path d="M124.312 55.25H117.406V62.1562H124.312V55.25Z" fill="#EEDC00"/>
<path d="M158.844 55.25H124.312V62.1562H158.844V55.25Z" fill="#FFF006"/>
<path d="M103.594 62.1562H41.4375V69.0625H103.594V62.1562Z" fill="#FFF006"/>
<path d="M110.5 62.1562H103.594V69.0625H110.5V62.1562Z" fill="#EEDC00"/>
<path d="M124.312 62.1562H110.5V69.0625H124.312V62.1562Z" fill="#FFF006"/>
<path d="M158.844 62.1562H124.312V69.0625H158.844V62.1562Z" fill="#EEDC00"/>
<path d="M165.75 62.1562H158.844V69.0625H165.75V62.1562Z" fill="#FFF006"/>
<path d="M103.594 69.0625H41.4375V75.9688H103.594V69.0625Z" fill="#FFF006"/>
<path d="M110.5 69.0625H103.594V75.9688H110.5V69.0625Z" fill="#EEDC00"/>
<path d="M165.75 69.0625H110.5V75.9688H165.75V69.0625Z" fill="#FFF006"/>
<path d="M103.594 75.9688H41.4375V82.875H103.594V75.9688Z" fill="#FFF006"/>
<path d="M110.5 75.9688H103.594V82.875H110.5V75.9688Z" fill="#EEDC00"/>
<path d="M165.75 75.9688H110.5V82.875H165.75V75.9688Z" fill="#FFF006"/>
<path d="M103.594 82.875H41.4375V89.7812H103.594V82.875Z" fill="#FFF006"/>
<path d="M110.5 82.875H103.594V89.7812H110.5V82.875Z" fill="#EEDC00"/>
<path d="M165.75 82.875H110.5V89.7812H165.75V82.875Z" fill="#FFF006"/>
<path d="M103.594 89.7812H41.4375V96.6875H103.594V89.7812Z" fill="#FFF006"/>
<path d="M110.5 89.7812H103.594V96.6875H110.5V89.7812Z" fill="#EEDC00"/>
<path d="M165.75 89.7812H110.5V96.6875H165.75V89.7812Z" fill="#FFF006"/>
<path d="M103.594 96.6875H41.4375V103.594H103.594V96.6875Z" fill="#FFF006"/>
<path d="M110.5 96.6875H103.594V103.594H110.5V96.6875Z" fill="#EEDC00"/>
<path d="M165.75 96.6875H110.5V103.594H165.75V96.6875Z" fill="#FFF006"/>
<path d="M103.594 103.594H41.4375V110.5H103.594V103.594Z" fill="#FFF006"/>
<path d="M110.5 103.594H103.594V110.5H110.5V103.594Z" fill="#EEDC00"/>
<path d="M165.75 103.594H110.5V110.5H165.75V103.594Z" fill="#FFF006"/>
<path d="M103.594 110.5H41.4375V117.406H103.594V110.5Z" fill="#FFF006"/>
<path d="M110.5 110.5H103.594V117.406H110.5V110.5Z" fill="#EEDC00"/>
<path d="M165.75 110.5H110.5V117.406H165.75V110.5Z" fill="#FFF006"/>
<path d="M62.1562 117.406H41.4375V124.312H62.1562V117.406Z" fill="#FFF006"/>
<path d="M165.75 117.406H62.1562V124.312H165.75V117.406Z" fill="#EEDC00"/>
<path d="M62.1562 124.312H34.5312V131.219H62.1562V124.312Z" fill="#FFF006"/>
<path d="M69.0625 124.312H62.1562V131.219H69.0625V124.312Z" fill="#EEDC00"/>
<path d="M158.844 124.312H69.0625V131.219H158.844V124.312Z" fill="black"/>
<path d="M165.75 124.312H158.844V131.219H165.75V124.312Z" fill="#EEDC00"/>
<path d="M200.281 124.312H165.75V131.219H200.281V124.312Z" fill="#FFF006"/>
<path d="M62.1562 131.219H34.5312V138.125H62.1562V131.219Z" fill="#FFF006"/>
<path d="M69.0625 131.219H62.1562V138.125H69.0625V131.219Z" fill="#EEDC00"/>
<path d="M158.844 131.219H69.0625V138.125H158.844V131.219Z" fill="#FFF006"/>
<path d="M165.75 131.219H158.844V138.125H165.75V131.219Z" fill="#EEDC00"/>
<path d="M200.281 131.219H165.75V138.125H200.281V131.219Z" fill="#FFF006"/>
<path d="M200.281 138.125H34.5312V145.031H200.281V138.125Z" fill="#FFF006"/>
<path d="M110.5 75.9688H69.0625V82.875H110.5V75.9688Z" fill="#FE500C"/>
<path d="M158.844 75.9688H117.406V82.875H158.844V75.9688Z" fill="#FE500C"/>
<path d="M75.9688 82.875H69.0625V89.7812H75.9688V82.875Z" fill="#FE500C"/>
<path d="M89.7812 82.875H75.9688V89.7812H89.7812V82.875Z" fill="white"/>
<path d="M103.594 82.875H89.7812V89.7812H103.594V82.875Z" fill="black"/>
<path d="M110.5 82.875H103.594V89.7812H110.5V82.875Z" fill="#FE500C"/>
<path d="M124.312 82.875H117.406V89.7812H124.312V82.875Z" fill="#FE500C"/>
<path d="M138.125 82.875H124.312V89.7812H138.125V82.875Z" fill="white"/>
<path d="M151.938 82.875H138.125V89.7812H151.938V82.875Z" fill="black"/>
<path d="M158.844 82.875H151.938V89.7812H158.844V82.875Z" fill="#FE500C"/>
<path d="M75.9688 89.7812H48.3438V96.6875H75.9688V89.7812Z" fill="#FE500C"/>
<path d="M89.7812 89.7812H75.9688V96.6875H89.7812V89.7812Z" fill="white"/>
<path d="M103.594 89.7812H89.7812V96.6875H103.594V89.7812Z" fill="black"/>
<path d="M124.312 89.7812H103.594V96.6875H124.312V89.7812Z" fill="#FE500C"/>
<path d="M138.125 89.7812H124.312V96.6875H138.125V89.7812Z" fill="white"/>
<path d="M151.938 89.7812H138.125V96.6875H151.938V89.7812Z" fill="black"/>
<path d="M158.844 89.7812H151.938V96.6875H158.844V89.7812Z" fill="#FE500C"/>
<path d="M55.25 96.6875H48.3438V103.594H55.25V96.6875Z" fill="#FE500C"/>
<path d="M75.9688 96.6875H69.0625V103.594H75.9688V96.6875Z" fill="#FE500C"/>
<path d="M89.7812 96.6875H75.9688V103.594H89.7812V96.6875Z" fill="white"/>
<path d="M103.594 96.6875H89.7812V103.594H103.594V96.6875Z" fill="black"/>
<path d="M110.5 96.6875H103.594V103.594H110.5V96.6875Z" fill="#FE500C"/>
<path d="M124.312 96.6875H117.406V103.594H124.312V96.6875Z" fill="#FE500C"/>
<path d="M138.125 96.6875H124.312V103.594H138.125V96.6875Z" fill="white"/>
<path d="M151.938 96.6875H138.125V103.594H151.938V96.6875Z" fill="black"/>
<path d="M158.844 96.6875H151.938V103.594H158.844V96.6875Z" fill="#FE500C"/>
<path d="M55.25 103.594H48.3438V110.5H55.25V103.594Z" fill="#FE500C"/>
<path d="M75.9688 103.594H69.0625V110.5H75.9688V103.594Z" fill="#FE500C"/>
<path d="M89.7812 103.594H75.9688V110.5H89.7812V103.594Z" fill="white"/>
<path d="M103.594 103.594H89.7812V110.5H103.594V103.594Z" fill="black"/>
<path d="M110.5 103.594H103.594V110.5H110.5V103.594Z" fill="#FE500C"/>
<path d="M124.312 103.594H117.406V110.5H124.312V103.594Z" fill="#FE500C"/>
<path d="M138.125 103.594H124.312V110.5H138.125V103.594Z" fill="white"/>
<path d="M151.938 103.594H138.125V110.5H151.938V103.594Z" fill="black"/>
<path d="M158.844 103.594H151.938V110.5H158.844V103.594Z" fill="#FE500C"/>
<path d="M110.5 110.5H69.0625V117.406H110.5V110.5Z" fill="#FE500C"/>
<path d="M158.844 110.5H117.406V117.406H158.844V110.5Z" fill="#FE500C"/>
</g>
<defs>
<clipPath id="clip0_58_54203">
<rect width="221" height="221" fill="white"/>
</clipPath>
</defs>
</svg>
