<svg width="36" height="36" viewBox="0 0 36 36" fill="none" xmlns="http://www.w3.org/2000/svg">
<path d="M30.0609 32.4414C26.9359 32.4414 23.7962 31.7381 20.6419 30.3316C17.4875 28.925 14.6179 26.9435 12.0331 24.387C9.44836 21.8163 7.46331 18.9813 6.07799 15.8818C4.69266 12.7824 4 9.6223 4 6.40165V4H14.4609L16.1664 12.5125L11.2979 17.0158C11.7772 17.8495 12.3155 18.6438 12.9128 19.3987C13.5101 20.1536 14.1609 20.8707 14.8652 21.55C15.5196 22.1902 16.2109 22.7957 16.9392 23.3663C17.6674 23.937 18.4326 24.4603 19.2348 24.9364L24.1147 20.1413L32.4414 21.9543V32.4414H30.0609ZM9.38534 13.3815L11.8391 11.0973L11.2441 7.97504H8.05491C8.15166 9.00111 8.3109 9.95845 8.53263 10.8471C8.75437 11.7356 9.03861 12.5805 9.38534 13.3815ZM22.8951 26.9125C23.7821 27.2951 24.6894 27.6044 25.6171 27.8402C26.5449 28.0761 27.4946 28.2457 28.4663 28.3489V25.1549L25.3652 24.4848L22.8951 26.9125Z" fill="#594440"/>
</svg>
