<svg width="36" height="36" viewBox="0 0 36 36" fill="none" xmlns="http://www.w3.org/2000/svg">
<path d="M16.2331 19.7207V4H20.2082V19.7207H16.2331ZM18.2179 32.4414C16.2708 32.4414 14.4341 32.0669 12.7077 31.318C10.9812 30.5692 9.47229 29.551 8.18076 28.2634C6.88924 26.9759 5.86956 25.4682 5.12174 23.7404C4.37391 22.0126 4 20.1727 4 18.2207C4 16.1239 4.42309 14.1451 5.26926 12.2842C6.11546 10.4234 7.30976 8.8288 8.85216 7.50055L11.6728 10.3C10.5127 11.2689 9.60641 12.4437 8.95386 13.8244C8.30131 15.205 7.97504 16.6705 7.97504 18.2207C7.97504 21.0504 8.97523 23.4655 10.9756 25.4658C12.976 27.4661 15.3911 28.4663 18.2209 28.4663C21.0751 28.4663 23.4962 27.4661 25.4842 25.4658C27.4723 23.4655 28.4663 21.0504 28.4663 18.2207C28.4663 16.6715 28.1421 15.207 27.4938 13.8273C26.8454 12.4475 25.9158 11.2435 24.7049 10.2153L27.5256 7.39458C29.1104 8.76523 30.3259 10.3875 31.1721 12.2614C32.0183 14.1353 32.4414 16.1237 32.4414 18.2265C32.4414 20.1715 32.0674 22.0087 31.3196 23.7381C30.5718 25.4674 29.5563 26.9764 28.2732 28.265C26.99 29.5536 25.4867 30.5718 23.7633 31.3196C22.0398 32.0674 20.1914 32.4414 18.2179 32.4414Z" fill="#E50000"/>
</svg>
