<svg width="102" height="34" viewBox="0 0 102 34" fill="none" xmlns="http://www.w3.org/2000/svg">
<path d="M20.4417 -0.00012207H6.8139V2.27119H20.4417V-0.00012207Z" fill="#F3322C"/>
<path d="M36.3408 -0.00012207H22.713V2.27119H36.3408V-0.00012207Z" fill="#F3322C"/>
<path d="M9.08521 2.27103H6.8139V4.54233H9.08521V2.27103Z" fill="#F3322C"/>
<path d="M13.6276 2.27103H9.08502V4.54233H13.6276V2.27103Z" fill="white"/>
<path d="M18.1705 2.27103H13.6279V4.54233H18.1705V2.27103Z" fill="black"/>
<path d="M20.4415 2.27103H18.1702V4.54233H20.4415V2.27103Z" fill="#F3322C"/>
<path d="M24.9843 2.27103H22.713V4.54233H24.9843V2.27103Z" fill="#F3322C"/>
<path d="M29.5267 2.27103H24.9841V4.54233H29.5267V2.27103Z" fill="white"/>
<path d="M34.0695 2.27103H29.5269V4.54233H34.0695V2.27103Z" fill="black"/>
<path d="M36.341 2.27103H34.0697V4.54233H36.341V2.27103Z" fill="#F3322C"/>
<path d="M9.08517 4.54268H-6.10352e-05V6.81399H9.08517V4.54268Z" fill="#F3322C"/>
<path d="M13.6276 4.54268H9.08502V6.81399H13.6276V4.54268Z" fill="white"/>
<path d="M18.1705 4.54268H13.6279V6.81399H18.1705V4.54268Z" fill="black"/>
<path d="M24.9841 4.54268H18.1702V6.81399H24.9841V4.54268Z" fill="#F3322C"/>
<path d="M29.5267 4.54268H24.9841V6.81399H29.5267V4.54268Z" fill="white"/>
<path d="M34.0695 4.54268H29.5269V6.81399H34.0695V4.54268Z" fill="black"/>
<path d="M36.341 4.54268H34.0697V6.81399H36.341V4.54268Z" fill="#F3322C"/>
<path d="M2.27125 6.81407H-6.10352e-05V9.08538H2.27125V6.81407Z" fill="#F3322C"/>
<path d="M9.08521 6.81407H6.8139V9.08538H9.08521V6.81407Z" fill="#F3322C"/>
<path d="M13.6276 6.81407H9.08502V9.08538H13.6276V6.81407Z" fill="white"/>
<path d="M18.1705 6.81407H13.6279V9.08538H18.1705V6.81407Z" fill="black"/>
<path d="M20.4415 6.81407H18.1702V9.08538H20.4415V6.81407Z" fill="#F3322C"/>
<path d="M24.9843 6.81407H22.713V9.08538H24.9843V6.81407Z" fill="#F3322C"/>
<path d="M29.5267 6.81407H24.9841V9.08538H29.5267V6.81407Z" fill="white"/>
<path d="M34.0695 6.81407H29.5269V9.08538H34.0695V6.81407Z" fill="black"/>
<path d="M36.341 6.81407H34.0697V9.08538H36.341V6.81407Z" fill="#F3322C"/>
<path d="M2.27125 9.08522H-6.10352e-05V11.3565H2.27125V9.08522Z" fill="#F3322C"/>
<path d="M9.08521 9.08522H6.8139V11.3565H9.08521V9.08522Z" fill="#F3322C"/>
<path d="M13.6276 9.08522H9.08502V11.3565H13.6276V9.08522Z" fill="white"/>
<path d="M18.1705 9.08522H13.6279V11.3565H18.1705V9.08522Z" fill="black"/>
<path d="M20.4415 9.08522H18.1702V11.3565H20.4415V9.08522Z" fill="#F3322C"/>
<path d="M24.9843 9.08522H22.713V11.3565H24.9843V9.08522Z" fill="#F3322C"/>
<path d="M29.5267 9.08522H24.9841V11.3565H29.5267V9.08522Z" fill="white"/>
<path d="M34.0695 9.08522H29.5269V11.3565H34.0695V9.08522Z" fill="black"/>
<path d="M36.341 9.08522H34.0697V11.3565H36.341V9.08522Z" fill="#F3322C"/>
<path d="M20.4417 11.3569H6.8139V13.6282H20.4417V11.3569Z" fill="#F3322C"/>
<path d="M36.3408 11.3569H22.713V13.6282H36.3408V11.3569Z" fill="#F3322C"/>
<path d="M-6.10352e-05 23.0262V34H5.48684V28.5131H10.9738V23.0262H-6.10352e-05ZM16.4607 23.0262V28.5131H10.9738V34C13.6829 34 19.2041 34 21.9476 34V23.0262H16.4607Z" fill="#292929"/>
<path d="M36.3587 34V23.0262H25.3849V34H36.3587Z" fill="#292929"/>
<path d="M50.7592 23.0262V28.5131H45.2723V23.0262H39.7854V34C44.655 34 51.3422 34 56.2461 34V23.0262H50.7592Z" fill="#292929"/>
<path d="M59.6781 23.0262V34H65.165V28.5131H70.6519V23.0262H59.6781ZM76.1388 23.0262V28.5131H70.6519V34C73.361 34 78.8822 34 81.6257 34V23.0262H76.1388Z" fill="#292929"/>
<path d="M90.5499 23.0262V28.5131H85.063V34H96.0369V28.5131H101.524V23.0262H90.5499Z" fill="#292929"/>
</svg>
