<svg width="36" height="36" viewBox="0 0 36 36" fill="none" xmlns="http://www.w3.org/2000/svg">
<path d="M17.5821 26.7207C18.1636 26.7207 18.6604 26.5147 19.0723 26.1028C19.4843 25.6908 19.6902 25.193 19.6902 24.6095C19.6902 24.026 19.4843 23.5328 19.0723 23.1299C18.6604 22.727 18.1636 22.5256 17.5821 22.5256C17.0005 22.5256 16.5038 22.727 16.0919 23.1299C15.6799 23.5328 15.4739 24.026 15.4739 24.6095C15.4739 25.193 15.6799 25.6908 16.0919 26.1028C16.5038 26.5147 17.0005 26.7207 17.5821 26.7207ZM15.9989 20.9457H19.1978C19.1978 20.1772 19.2951 19.5484 19.4897 19.0593C19.6843 18.5701 20.1837 17.9413 20.9881 17.1728C21.5957 16.5794 22.0835 15.9779 22.4514 15.3684C22.8193 14.7589 23.0033 14.0263 23.0033 13.1704C23.0033 11.7181 22.5049 10.6063 21.5082 9.83506C20.5114 9.06389 19.3131 8.6783 17.9131 8.6783C16.4316 8.6783 15.2117 9.08863 14.2535 9.90928C13.2954 10.7299 12.6272 11.7076 12.2489 12.8424L15.1903 13.9658C15.3435 13.4876 15.6212 12.993 16.0234 12.4821C16.4256 11.9712 17.0201 11.7158 17.8071 11.7158C18.4375 11.7158 18.9174 11.8992 19.2467 12.2661C19.5761 12.6329 19.7408 13.0365 19.7408 13.4767C19.7408 13.906 19.6014 14.3288 19.3226 14.7451C19.0438 15.1614 18.7288 15.5147 18.3777 15.8049C17.3342 16.7516 16.6769 17.4997 16.4057 18.0492C16.1345 18.5987 15.9989 19.5642 15.9989 20.9457ZM17.7207 33.4414C15.5326 33.4414 13.4838 33.0294 11.5742 32.2054C9.66458 31.3814 8.00348 30.2631 6.5909 28.8505C5.1783 27.4379 4.06 25.7768 3.236 23.8672C2.412 21.9576 2 19.9087 2 17.7207C2 15.5326 2.412 13.4838 3.236 11.5742C4.06 9.66458 5.1783 8.00348 6.5909 6.5909C8.00348 5.1783 9.66458 4.06 11.5742 3.236C13.4838 2.412 15.5326 2 17.7207 2C19.9087 2 21.9576 2.412 23.8672 3.236C25.7768 4.06 27.4379 5.1783 28.8505 6.5909C30.2631 8.00348 31.3814 9.66458 32.2054 11.5742C33.0294 13.4838 33.4414 15.5326 33.4414 17.7207C33.4414 19.9087 33.0294 21.9576 32.2054 23.8672C31.3814 25.7768 30.2631 27.4379 28.8505 28.8505C27.4379 30.2631 25.7768 31.3814 23.8672 32.2054C21.9576 33.0294 19.9087 33.4414 17.7207 33.4414ZM17.7207 29.4663C21.0142 29.4663 23.7951 28.3321 26.0636 26.0636C28.3321 23.7951 29.4663 21.0142 29.4663 17.7207C29.4663 14.4272 28.3321 11.6462 26.0636 9.37775C23.7951 7.10927 21.0142 5.97504 17.7207 5.97504C14.4272 5.97504 11.6462 7.10927 9.37775 9.37775C7.10928 11.6462 5.97504 14.4272 5.97504 17.7207C5.97504 21.0142 7.10928 23.7951 9.37775 26.0636C11.6462 28.3321 14.4272 29.4663 17.7207 29.4663Z" fill="#594440"/>
</svg>
