<svg width="36" height="36" viewBox="0 0 36 36" fill="none" xmlns="http://www.w3.org/2000/svg">
<path d="M32.4414 10.4239V32.4414H4V4H26.0174L32.4414 10.4239ZM28.4663 12.1017L24.3397 7.97504H7.97504V28.4663H28.4663V12.1017ZM18.2207 26.9663C19.4707 26.9663 20.5332 26.5288 21.4082 25.6538C22.2832 24.7788 22.7207 23.7163 22.7207 22.4663C22.7207 21.2163 22.2832 20.1538 21.4082 19.2788C20.5332 18.4038 19.4707 17.9663 18.2207 17.9663C16.9707 17.9663 15.9082 18.4038 15.0332 19.2788C14.1582 20.1538 13.7207 21.2163 13.7207 22.4663C13.7207 23.7163 14.1582 24.7788 15.0332 25.6538C15.9082 26.5288 16.9707 26.9663 18.2207 26.9663ZM9.47504 15.475H22.975V9.47504H9.47504V15.475ZM7.97504 12.1017V28.4663V7.97504V12.1017Z" fill="#594440"/>
</svg>
