<svg width="36" height="36" viewBox="0 0 36 36" fill="none" xmlns="http://www.w3.org/2000/svg">
<path d="M13.0359 34.323L10.0375 29.2262L4.29839 27.9626L4.86576 22.0947L1 17.6615L4.86576 13.2283L4.29839 7.36038L10.0375 6.09678L13.0359 1L18.4327 3.3022L23.8294 1L26.8278 6.09678L32.5669 7.36038L31.9996 13.2283L35.8653 17.6615L31.9996 22.0947L32.5669 27.9626L26.8278 29.2262L23.8294 34.323L18.4327 32.0208L13.0359 34.323ZM14.7136 29.2685L18.4327 27.6397L22.2267 29.2685L24.2631 25.7533L28.2609 24.8207L27.9283 20.7055L30.5973 17.6615L27.9283 14.5425L28.2609 10.4272L24.2631 9.56965L22.1517 6.05444L18.4327 7.68321L14.6386 6.05444L12.6022 9.56965L8.6044 10.4272L8.93703 14.5425L6.268 17.6615L8.93703 20.7055L8.6044 24.8957L12.6022 25.7533L14.7136 29.2685ZM16.8577 23.2197L25.5658 14.5115L23.2115 12.1245L16.8577 18.4783L13.6539 15.3071L11.2995 17.6615L16.8577 23.2197Z" fill="#399726"/>
</svg>
