<svg width="36" height="36" viewBox="0 0 36 36" fill="none" xmlns="http://www.w3.org/2000/svg">
<path d="M31.4414 11.4707H27.4663V7.97504H6.97504V28.4663H27.4663V24.9707H31.4414V32.4414H3V4H31.4414V11.4707ZM15.7207 25.7207V10.7207H32.9414V25.7207H15.7207ZM23.2207 20.4707C23.8457 20.4707 24.3769 20.2519 24.8144 19.8144C25.2519 19.3769 25.4707 18.8457 25.4707 18.2207C25.4707 17.5957 25.2519 17.0644 24.8144 16.6269C24.3769 16.1894 23.8457 15.9707 23.2207 15.9707C22.5957 15.9707 22.0644 16.1894 21.6269 16.6269C21.1894 17.0644 20.9707 17.5957 20.9707 18.2207C20.9707 18.8457 21.1894 19.3769 21.6269 19.8144C22.0644 20.2519 22.5957 20.4707 23.2207 20.4707ZM29.9626 22.7207V13.7207H18.7207V22.7207H29.9626Z" fill="#594440"/>
</svg>
